<?xml version="1.0" standalone="no"?>
<!DOCTYPE svg PUBLIC "-//W3C//DTD SVG 20010904//EN"
 "http://www.w3.org/TR/2001/REC-SVG-20010904/DTD/svg10.dtd">
<svg version="1.0" xmlns="http://www.w3.org/2000/svg"
 width="500.000000pt" height="300.000000pt" viewBox="0 0 500.000000 300.000000"
 preserveAspectRatio="xMidYMid meet">

<g transform="translate(0.000000,300.000000) scale(0.100000,-0.100000)"
fill="#000000" stroke="none">
<path d="M2220 2283 c-37 -14 -59 -46 -66 -99 -5 -44 -10 -54 -25 -54 -15 0
-19 -7 -19 -35 0 -28 4 -35 20 -35 19 0 20 -7 20 -135 l0 -135 55 0 55 0 0
135 0 135 30 0 c28 0 30 3 30 35 0 30 -3 35 -24 35 -30 0 -40 14 -32 46 5 17
13 24 31 24 23 0 25 4 25 45 l0 45 -42 -1 c-24 0 -50 -3 -58 -6z"/>
<path d="M310 2035 l0 -245 108 0 c129 0 173 11 206 51 50 59 39 151 -22 186
l-29 17 33 32 c29 27 34 38 34 78 0 97 -51 126 -220 126 l-110 0 0 -245z m208
143 c7 -7 12 -24 12 -38 0 -36 -17 -50 -62 -50 l-38 0 0 50 0 50 38 0 c21 0
43 -5 50 -12z m6 -200 c9 -12 16 -30 16 -40 0 -30 -37 -58 -75 -58 l-35 0 0
60 0 60 39 0 c30 0 44 -6 55 -22z"/>
<path d="M1390 2035 l0 -245 55 0 55 0 0 63 c0 97 19 103 51 15 l26 -73 57 -3
c31 -2 56 -1 56 2 0 2 -20 57 -45 122 l-46 117 41 42 c22 22 40 44 40 48 0 4
-22 7 -49 7 -46 0 -51 -3 -90 -47 l-40 -48 -1 123 0 122 -55 0 -55 0 0 -245z"/>
<path d="M2515 2268 c-2 -7 -27 -112 -55 -233 -28 -121 -53 -226 -55 -232 -3
-9 11 -13 50 -13 52 0 54 1 60 33 14 69 12 67 75 67 l58 0 7 -50 7 -50 59 0
c32 0 59 2 59 4 0 3 -22 111 -50 241 -27 130 -50 238 -50 241 0 2 -36 4 -80 4
-56 0 -82 -4 -85 -12z m96 -198 l16 -90 -40 0 c-38 0 -39 1 -34 28 4 15 12 55
18 90 7 34 15 62 19 62 3 0 13 -40 21 -90z"/>
<path d="M3910 2230 l0 -50 55 0 55 0 0 50 0 50 -55 0 -55 0 0 -50z"/>
<path d="M753 2120 c-41 -24 -61 -59 -42 -71 8 -5 21 -9 29 -9 8 0 25 -3 36
-6 16 -4 23 0 27 16 8 32 51 24 55 -11 3 -25 -1 -28 -49 -39 -29 -7 -66 -25
-85 -42 -29 -26 -34 -37 -34 -74 0 -81 73 -119 150 -79 27 14 30 14 30 0 0
-11 12 -15 53 -15 l52 0 -3 132 c-1 73 -5 143 -7 156 -13 57 -144 84 -212 42z
m103 -246 c-3 -8 -16 -14 -30 -14 -47 0 -42 71 7 89 20 8 22 5 25 -26 2 -19 1
-41 -2 -49z"/>
<path d="M1178 2125 c-17 -10 -29 -11 -33 -5 -3 5 -28 10 -56 10 l-49 0 0
-170 0 -170 55 0 55 0 0 124 c0 129 9 156 45 142 12 -4 15 -29 15 -136 l0
-130 55 0 55 0 0 153 c0 140 -2 155 -20 175 -24 26 -81 29 -122 7z"/>
<path d="M1844 2121 c-45 -27 -69 -83 -68 -161 1 -116 50 -170 156 -170 47 0
62 5 89 27 41 35 59 79 59 148 0 69 -18 113 -59 148 -27 22 -42 27 -89 27 -38
0 -67 -6 -88 -19z m120 -92 c21 -108 -14 -208 -58 -163 -12 11 -16 36 -16 99
0 63 4 88 16 99 22 22 50 5 58 -35z"/>
<path d="M2960 2123 c-17 -12 -25 -13 -28 -5 -2 7 -25 12 -58 12 l-54 0 0
-170 0 -170 55 0 55 0 0 129 c0 121 1 130 20 136 11 3 24 3 30 0 6 -4 10 -59
10 -136 l0 -129 55 0 55 0 0 124 c0 129 9 156 45 142 12 -4 15 -29 15 -136 l0
-130 55 0 55 0 0 155 c0 142 -2 157 -20 175 -26 26 -85 26 -126 1 -31 -19 -32
-19 -48 0 -20 24 -83 25 -116 2z"/>
<path d="M3392 2120 c-42 -26 -72 -90 -72 -155 0 -106 60 -175 153 -175 59 0
102 21 122 59 15 29 15 30 -21 41 -32 11 -37 10 -50 -9 -29 -41 -94 -12 -94
41 0 16 11 18 96 18 l96 0 -7 48 c-16 108 -56 152 -139 152 -33 0 -62 -7 -84
-20z m118 -85 c0 -22 -4 -25 -40 -25 -46 0 -53 17 -20 50 26 26 60 12 60 -25z"/>
<path d="M3815 2128 c-11 -6 -26 -18 -32 -26 -11 -14 -13 -13 -13 6 0 20 -5
22 -55 22 l-55 0 0 -170 0 -170 55 0 55 0 0 115 c0 106 2 115 21 126 12 6 37
9 55 7 l34 -4 0 53 c0 48 -2 53 -22 53 -13 0 -32 -6 -43 -12z"/>
<path d="M4150 2118 c-98 -67 -98 -254 0 -311 39 -23 117 -22 156 2 38 23 65
88 43 102 -8 5 -27 8 -44 7 -22 -2 -31 -9 -35 -28 -5 -20 -12 -25 -35 -25 -24
0 -30 5 -38 35 -13 51 -2 151 18 166 24 18 45 6 52 -27 5 -27 9 -29 54 -29
l48 0 -9 29 c-21 75 -53 101 -126 101 -36 0 -60 -6 -84 -22z"/>
<path d="M4471 2127 c-28 -14 -68 -64 -59 -73 4 -3 24 -10 45 -15 33 -7 40 -5
54 12 21 28 53 21 57 -12 3 -22 -2 -27 -28 -33 -18 -3 -52 -15 -76 -26 -105
-46 -89 -190 21 -190 22 0 51 7 63 16 20 14 23 14 28 0 5 -12 20 -16 58 -16
l51 0 -5 142 c-3 79 -9 151 -14 160 -19 41 -140 63 -195 35z m99 -212 c0 -40
-3 -45 -26 -51 -48 -12 -60 42 -18 75 38 30 44 27 44 -24z"/>
<path d="M3912 1963 l3 -168 53 -3 52 -3 0 170 0 171 -55 0 -55 0 2 -167z"/>
<path d="M2370 1481 l-75 -17 115 -39 c99 -33 162 -58 350 -137 32 -14 41 -13
115 10 l80 25 -42 18 c-122 52 -443 161 -463 158 -3 -1 -39 -9 -80 -18z"/>
<path d="M2119 1410 c-46 -15 -77 -30 -69 -33 195 -68 275 -98 372 -140 l117
-49 75 27 c42 15 76 29 76 31 0 11 -342 149 -436 177 -48 14 -53 14 -135 -13z"/>
<path d="M1924 1275 c-65 -24 -137 -50 -159 -60 -82 -34 -295 -139 -295 -144
0 -3 38 -21 84 -39 l83 -33 74 42 c101 58 295 149 403 190 48 18 82 35 75 38
-8 2 -43 14 -80 26 l-65 22 -120 -42z"/>
<path d="M2935 1269 c-187 -58 -385 -138 -580 -234 -176 -87 -427 -234 -428
-250 0 -10 206 -125 223 -125 5 0 49 26 97 58 264 176 577 329 901 442 l163
57 -100 46 c-56 26 -111 47 -124 47 -12 -1 -80 -19 -152 -41z"/>
<path d="M2145 1182 c-118 -52 -313 -149 -384 -190 l-44 -25 84 -43 c46 -24
89 -43 95 -43 5 -1 62 28 125 64 93 53 309 157 418 201 22 9 18 13 -50 43
-109 49 -118 48 -244 -7z"/>
<path d="M3275 1146 c-313 -113 -653 -286 -937 -477 l-98 -66 127 -85 126 -85
106 81 c128 96 317 220 466 306 117 68 465 240 484 240 29 0 4 23 -78 69 -48
28 -92 51 -97 51 -5 -1 -50 -16 -99 -34z"/>
</g>
</svg>
