<?xml version="1.0" standalone="no"?>
<!DOCTYPE svg PUBLIC "-//W3C//DTD SVG 20010904//EN"
 "http://www.w3.org/TR/2001/REC-SVG-20010904/DTD/svg10.dtd">
<svg version="1.0" xmlns="http://www.w3.org/2000/svg"
 width="500.000000pt" height="300.000000pt" viewBox="0 0 500.000000 300.000000"
 preserveAspectRatio="xMidYMid meet">

<g transform="translate(0.000000,300.000000) scale(0.100000,-0.100000)"
fill="#000000" stroke="none">
<path d="M3930 1480 l0 -410 410 0 410 0 0 410 0 410 -410 0 -410 0 0 -410z
m700 0 l0 -300 -295 0 -295 0 0 300 0 300 295 0 295 0 0 -300z"/>
<path d="M4412 1701 c-8 -5 -78 -102 -157 -217 l-143 -209 72 -3 c62 -3 73 0
88 18 29 36 288 408 288 414 0 9 -134 7 -148 -3z"/>
<path d="M330 1245 l0 -165 91 0 c109 0 140 14 170 78 17 34 20 56 17 103 -8
108 -61 149 -195 149 l-83 0 0 -165z m181 79 c20 -21 24 -36 24 -85 0 -74 -21
-99 -86 -102 l-44 -2 -3 108 -3 107 44 0 c34 0 49 -6 68 -26z"/>
<path d="M1850 1245 l0 -165 30 0 30 0 0 73 c0 77 10 100 46 111 40 12 54 -17
54 -105 l0 -79 30 0 30 0 0 99 c0 97 -1 100 -27 121 -28 22 -74 24 -115 6 -16
-7 -18 -2 -18 48 0 56 0 56 -30 56 l-30 0 0 -165z"/>
<path d="M2510 1245 l0 -165 109 0 109 0 26 31 c34 40 34 82 0 116 -15 15 -22
28 -16 32 25 15 33 62 17 95 -22 45 -51 56 -155 56 l-90 0 0 -165z m183 83
c19 -29 -9 -48 -69 -48 -53 0 -54 1 -54 28 0 16 3 32 7 36 14 14 106 2 116
-16z m2 -124 c36 -36 -9 -76 -80 -72 -36 3 -40 6 -43 31 -6 48 3 57 57 57 32
0 55 -6 66 -16z"/>
<path d="M3360 1246 l0 -166 35 0 c34 0 35 1 35 38 0 64 19 69 52 12 26 -45
32 -50 63 -50 19 0 35 2 35 4 0 2 -18 34 -40 71 l-39 68 19 27 c10 15 26 33
35 40 24 20 18 30 -20 30 -28 0 -40 -7 -67 -41 l-33 -41 -5 83 -5 84 -32 3
-33 3 0 -165z"/>
<path d="M1228 1364 c-16 -8 -28 -21 -28 -29 0 -8 -7 -15 -15 -15 -9 0 -15 -9
-15 -25 0 -16 6 -25 15 -25 12 0 15 -16 15 -80 0 -91 17 -120 70 -120 27 0 30
3 30 30 0 20 -5 30 -15 30 -12 0 -15 14 -15 70 0 56 3 70 15 70 9 0 15 9 15
25 0 16 -6 25 -15 25 -10 0 -15 10 -15 30 0 34 -4 35 -42 14z"/>
<path d="M684 1286 c-29 -29 -34 -41 -34 -80 0 -26 7 -60 15 -76 36 -69 135
-79 190 -18 l29 33 -28 3 c-16 2 -39 -2 -51 -8 -31 -16 -65 -9 -83 18 l-14 22
86 0 c96 0 101 5 72 74 -19 45 -52 66 -104 66 -37 0 -50 -6 -78 -34z m107 -26
c38 -21 23 -40 -31 -40 -54 0 -62 10 -28 34 26 19 33 19 59 6z"/>
<path d="M920 1223 c0 -113 11 -139 65 -149 25 -4 43 -1 60 10 14 9 25 12 25
6 0 -5 16 -10 35 -10 l35 0 0 121 0 120 -32 -3 -33 -3 -5 -90 -5 -90 -35 0
-35 0 -5 90 -5 90 -32 3 -33 3 0 -98z"/>
<path d="M1366 1299 c-29 -23 -35 -69 -12 -88 8 -6 38 -19 67 -29 42 -13 54
-22 54 -37 0 -29 -49 -33 -72 -6 -21 25 -73 29 -73 6 0 -9 11 -27 24 -40 73
-73 225 -13 184 72 -11 22 -25 31 -73 43 -40 10 -60 20 -60 30 0 21 49 25 65
6 11 -14 70 -23 70 -11 0 18 -26 55 -47 64 -39 18 -97 13 -127 -10z"/>
<path d="M1634 1301 c-32 -20 -54 -64 -54 -111 0 -35 38 -91 74 -108 52 -26
140 12 148 63 4 29 -42 33 -67 5 -23 -25 -61 -26 -75 -1 -17 33 -12 86 10 106
17 15 24 16 45 7 14 -6 25 -16 25 -22 0 -5 16 -10 35 -10 39 0 39 0 24 33 -25
54 -108 73 -165 38z"/>
<path d="M2169 1305 c-28 -15 -59 -70 -59 -103 0 -58 45 -118 96 -128 56 -10
134 29 134 68 0 12 -68 10 -75 -2 -9 -14 -58 -13 -73 2 -30 30 -13 38 74 38
l86 0 -7 33 c-11 51 -34 87 -61 97 -36 14 -85 12 -115 -5z m89 -51 c34 -24 26
-34 -28 -34 -54 0 -59 4 -33 32 20 22 32 23 61 2z"/>
<path d="M2856 1299 c-35 -28 -34 -49 3 -49 17 0 33 5 36 10 8 13 62 13 71 -1
10 -17 -8 -28 -59 -38 -26 -5 -57 -17 -67 -26 -28 -25 -25 -71 5 -100 27 -28
58 -31 97 -11 16 9 30 11 33 5 4 -5 19 -9 34 -9 l28 0 -4 103 c-4 87 -8 105
-25 120 -30 25 -117 23 -152 -4z m114 -128 c0 -43 -55 -67 -81 -35 -11 14 -10
19 10 35 31 26 71 25 71 0z"/>
<path d="M3090 1200 l0 -120 35 0 35 0 0 85 c0 73 3 86 19 95 27 14 37 13 55
-6 12 -11 16 -36 16 -95 l0 -79 30 0 30 0 0 99 c0 96 -1 100 -26 120 -29 23
-74 27 -104 11 -13 -7 -21 -7 -25 0 -3 5 -19 10 -36 10 l-29 0 0 -120z"/>
</g>
</svg>
