<?xml version="1.0" standalone="no"?>
<!DOCTYPE svg PUBLIC "-//W3C//DTD SVG 20010904//EN"
 "http://www.w3.org/TR/2001/REC-SVG-20010904/DTD/svg10.dtd">
<svg version="1.0" xmlns="http://www.w3.org/2000/svg"
 width="500.000000pt" height="300.000000pt" viewBox="0 0 500.000000 300.000000"
 preserveAspectRatio="xMidYMid meet">

<g transform="translate(0.000000,300.000000) scale(0.100000,-0.100000)"
fill="#000000" stroke="none">
<path d="M665 1946 c-79 -20 -128 -44 -119 -58 4 -7 39 -47 77 -90 l69 -76 52
5 c70 7 129 -11 178 -55 107 -96 105 -253 -5 -347 -53 -45 -137 -71 -263 -82
l-99 -8 220 -11 220 -11 -275 -3 -275 -3 170 -9 c388 -19 412 -25 115 -27
l-275 -2 35 -30 c111 -95 297 -123 444 -68 213 79 341 325 282 544 -65 243
-312 391 -551 331z"/>
<path d="M455 1829 l-57 -55 96 -63 95 -63 31 26 c18 14 36 26 41 26 24 0 2
32 -70 104 l-80 79 -56 -54z"/>
<path d="M4380 1520 l0 -250 45 0 45 0 0 83 0 82 53 -82 52 -82 58 0 59 -1
-35 48 c-88 122 -97 135 -89 146 5 6 32 41 61 79 l53 67 -55 0 -55 0 -49 -66
-48 -66 -3 146 -3 146 -44 0 -45 0 0 -250z"/>
<path d="M355 1696 c-14 -31 -25 -64 -25 -74 0 -12 27 -27 101 -55 55 -21 103
-36 107 -33 3 4 11 21 18 39 6 17 14 39 18 47 4 11 -19 30 -86 70 -50 30 -95
57 -100 58 -4 2 -19 -22 -33 -52z"/>
<path d="M1530 1731 c-112 -35 -174 -120 -173 -241 1 -135 63 -209 190 -226
66 -8 151 16 199 58 134 118 100 356 -59 403 -54 16 -116 18 -157 6z m140
-119 c56 -56 50 -175 -11 -226 -53 -45 -145 -28 -167 31 -45 119 3 223 104
223 37 0 51 -6 74 -28z"/>
<path d="M2026 1715 c-61 -21 -88 -46 -118 -105 -36 -70 -39 -171 -7 -238 33
-66 82 -94 179 -100 108 -6 150 3 150 31 -1 61 -6 65 -87 63 -72 -1 -75 0
-103 31 -52 58 -52 148 0 206 27 31 31 32 103 31 l75 0 6 39 c4 21 4 42 1 48
-9 14 -155 10 -199 -6z"/>
<path d="M2310 1499 l0 -231 123 4 c105 3 128 6 163 27 76 43 97 122 48 180
-14 17 -32 31 -39 31 -7 0 2 15 21 34 27 27 34 42 34 73 0 88 -50 113 -225
113 l-125 0 0 -231z m208 135 c48 -33 16 -84 -54 -84 l-44 0 0 43 c0 24 3 47
7 50 12 13 68 7 91 -9z m-9 -175 c83 -29 20 -125 -68 -102 -18 4 -21 13 -21
52 0 26 3 51 7 54 10 10 46 8 82 -4z"/>
<path d="M2865 1715 c-54 -19 -119 -92 -134 -149 -34 -134 20 -254 127 -287
36 -10 205 -10 215 1 2 3 2 24 -1 48 l-4 43 -53 -6 c-106 -14 -165 32 -165
128 0 107 53 155 157 143 50 -6 53 -5 59 18 3 13 4 35 2 47 -3 23 -7 24 -83
26 -49 2 -95 -3 -120 -12z"/>
<path d="M3250 1500 l0 -230 93 0 c112 0 157 12 196 51 56 55 50 142 -12 179
-29 18 -29 18 -8 29 24 13 51 61 51 91 0 37 -30 81 -65 96 -23 9 -72 14 -145
14 l-110 0 0 -230z m204 144 c20 -20 21 -68 1 -84 -9 -7 -38 -15 -65 -18 l-50
-5 0 62 0 61 49 0 c32 0 55 -6 65 -16z m4 -190 c28 -19 29 -65 2 -89 -11 -10
-42 -20 -70 -23 l-50 -5 0 67 0 66 48 0 c27 0 57 -7 70 -16z"/>
<path d="M652 1654 l-33 -27 88 -58 88 -59 3 41 c3 38 -1 46 -39 85 -24 24
-50 44 -59 44 -8 0 -30 -12 -48 -26z"/>
<path d="M3697 1610 c-27 -5 -50 -10 -52 -12 -1 -2 0 -19 2 -39 l5 -36 36 13
c73 26 132 10 132 -35 0 -13 -14 -20 -60 -29 -67 -12 -117 -42 -131 -79 -26
-70 11 -123 86 -123 48 0 99 20 108 42 3 7 6 1 6 -14 1 -26 4 -28 41 -28 l40
0 0 129 c0 140 -7 172 -42 195 -30 19 -110 27 -171 16z m123 -210 c0 -32 -45
-72 -78 -68 -23 2 -27 8 -27 33 0 33 30 55 78 55 21 0 27 -5 27 -20z"/>
<path d="M4145 1605 c-22 -8 -45 -22 -52 -32 -12 -15 -13 -14 -13 10 0 25 -3
27 -40 27 l-40 0 0 -170 0 -170 39 0 39 0 4 104 c3 118 21 158 72 164 50 6 56
-9 56 -144 l0 -124 46 0 46 0 -4 145 c-3 139 -4 146 -28 169 -33 32 -75 39
-125 21z"/>
<path d="M596 1588 c-8 -13 -17 -34 -21 -48 -6 -24 -1 -27 97 -64 57 -22 109
-41 116 -44 8 -3 12 7 12 31 0 32 -5 37 -87 88 -48 30 -90 55 -94 57 -4 2 -14
-7 -23 -20z"/>
<path d="M314 1553 c-8 -41 1 -138 15 -177 l11 -26 230 0 230 0 0 34 0 33
-102 36 c-142 50 -134 50 -130 -3 2 -25 8 -54 13 -65 10 -20 10 -20 -6 0 -16
20 -35 78 -35 107 0 10 -16 22 -42 32 -24 9 -73 27 -110 40 l-67 25 -7 -36z"/>
<path d="M350 1320 c0 -6 11 -15 25 -20 14 -5 28 -17 31 -25 5 -12 29 -15 134
-15 110 0 129 2 143 18 10 10 17 22 17 25 0 4 -45 7 -99 7 -56 0 -103 4 -106
10 -8 13 -145 13 -145 0z"/>
</g>
</svg>
