<?xml version="1.0" standalone="no"?>
<!DOCTYPE svg PUBLIC "-//W3C//DTD SVG 20010904//EN"
 "http://www.w3.org/TR/2001/REC-SVG-20010904/DTD/svg10.dtd">
<svg version="1.0" xmlns="http://www.w3.org/2000/svg"
 width="500.000000pt" height="300.000000pt" viewBox="0 0 500.000000 300.000000"
 preserveAspectRatio="xMidYMid meet">

<g transform="translate(0.000000,300.000000) scale(0.100000,-0.100000)"
fill="#000000" stroke="none">
<path d="M953 1945 c-115 -32 -212 -100 -257 -179 -13 -23 -45 -121 -71 -218
-37 -142 -44 -180 -36 -197 22 -41 99 -40 125 2 8 12 33 92 56 177 22 85 48
165 56 178 24 36 93 81 153 98 133 39 261 -28 261 -138 0 -21 -22 -128 -50
-238 -27 -110 -50 -213 -50 -229 0 -52 68 -69 114 -28 21 18 34 57 77 227 44
179 50 215 47 280 -7 120 -60 199 -166 248 -68 31 -184 38 -259 17z"/>
<path d="M421 1803 c-17 -14 -33 -65 -72 -218 -42 -167 -50 -211 -46 -265 16
-239 273 -350 525 -228 62 31 164 126 176 165 25 83 96 357 96 373 0 49 -87
62 -126 19 -9 -10 -37 -92 -61 -181 -50 -183 -66 -209 -158 -253 -71 -34 -131
-40 -198 -21 -62 18 -90 46 -109 108 -11 36 -7 59 41 251 56 228 57 237 39
255 -18 18 -83 15 -107 -5z"/>
<path d="M1646 1633 c-32 -156 -33 -201 -5 -232 57 -61 185 -55 256 12 17 16
36 41 42 56 11 28 61 254 61 277 0 10 -13 14 -48 14 l-48 0 -29 -137 c-32
-156 -51 -187 -107 -181 -52 5 -56 23 -29 155 14 65 26 128 29 141 4 20 1 22
-45 22 l-50 0 -27 -127z"/>
<path d="M2406 1748 c-3 -7 -7 -25 -10 -40 -6 -27 -5 -28 39 -28 40 0 47 3 55
26 18 47 14 54 -35 54 -28 0 -47 -5 -49 -12z"/>
<path d="M3375 1748 c-7 -23 -75 -354 -75 -366 0 -9 33 -12 118 -12 169 1 226
31 239 128 5 34 2 42 -22 60 -15 12 -23 22 -18 22 19 0 61 50 67 80 8 44 -8
76 -45 89 -46 16 -258 15 -264 -1z m203 -91 c7 -33 -17 -47 -78 -47 -55 0 -58
1 -53 23 10 48 11 48 70 45 46 -2 58 -7 61 -21z m-20 -153 c5 -37 -23 -54 -90
-54 l-60 0 7 33 c11 48 12 48 78 45 54 -3 62 -6 65 -24z"/>
<path d="M4435 1748 c-3 -7 -21 -89 -40 -183 -20 -93 -38 -176 -40 -182 -3 -9
10 -13 44 -13 l49 0 7 39 c4 26 15 45 30 55 22 15 23 14 41 -37 l19 -52 53 -3
c28 -2 52 -1 52 2 0 3 -13 39 -30 81 -16 42 -30 80 -30 86 0 5 26 34 58 64
l57 54 -55 1 c-52 0 -57 -2 -102 -47 -26 -26 -50 -45 -52 -42 -4 4 11 88 29
167 5 20 2 22 -40 22 -27 0 -47 -5 -50 -12z"/>
<path d="M2628 1660 c-75 -22 -128 -99 -128 -184 0 -58 12 -81 50 -101 55 -28
153 -13 203 33 34 31 57 89 57 145 0 45 -4 59 -25 79 -35 36 -96 46 -157 28z
m78 -82 c24 -38 -11 -134 -52 -144 -56 -14 -78 72 -33 130 22 28 72 36 85 14z"/>
<path d="M2040 1653 c0 -11 -49 -244 -56 -265 -5 -16 2 -18 43 -18 l49 0 22
98 c12 54 28 104 34 110 7 7 25 12 40 12 25 0 28 -3 28 -32 -1 -18 -7 -60 -15
-93 -23 -93 -22 -95 30 -95 38 0 45 3 50 23 2 12 11 53 20 90 18 82 19 149 3
165 -17 17 -93 15 -128 -3 -27 -14 -30 -14 -30 0 0 11 -11 15 -45 15 -25 0
-45 -3 -45 -7z"/>
<path d="M2385 1648 c-8 -22 -55 -249 -55 -264 0 -10 13 -14 45 -14 25 0 45 1
45 3 0 2 14 65 30 140 17 76 30 140 30 142 0 12 -91 4 -95 -7z"/>
<path d="M2875 1638 c-10 -47 -55 -260 -55 -264 0 -2 22 -4 48 -4 l48 0 17 86
c9 48 23 97 32 110 17 27 62 33 71 10 3 -8 -3 -58 -14 -110 l-19 -96 48 0 c27
0 49 2 49 4 0 2 9 48 20 101 24 117 25 149 4 169 -20 21 -102 21 -132 0 -20
-14 -22 -14 -22 0 0 12 -11 16 -45 16 -38 0 -45 -3 -50 -22z"/>
<path d="M3783 1640 c-28 -17 -53 -47 -53 -64 0 -13 82 -5 96 9 20 20 63 19
71 -1 7 -20 -10 -31 -62 -40 -100 -16 -145 -55 -145 -123 0 -55 63 -77 135
-47 19 8 35 11 35 5 0 -5 23 -9 50 -9 l50 0 0 38 c1 20 7 64 15 97 31 126 14
155 -92 155 -50 0 -77 -5 -100 -20z m97 -159 c0 -20 -44 -61 -65 -61 -7 0 -18
7 -25 15 -17 20 10 52 49 58 14 2 29 5 34 6 4 0 7 -8 7 -18z"/>
<path d="M4070 1655 c0 -5 -44 -216 -55 -262 -5 -21 -2 -23 43 -23 l48 0 18
88 c10 48 24 97 32 110 17 26 62 30 71 6 3 -9 -3 -58 -14 -110 l-19 -94 47 0
47 0 17 73 c9 39 19 99 22 131 5 50 3 61 -12 73 -25 18 -89 17 -125 -2 -27
-14 -30 -14 -30 0 0 11 -11 15 -45 15 -25 0 -45 -2 -45 -5z"/>
<path d="M3912 1264 c-12 -8 -22 -22 -22 -30 0 -8 -7 -14 -15 -14 -17 0 -19
-12 -5 -26 8 -8 8 -25 1 -55 -14 -59 -13 -69 3 -69 10 0 19 20 26 58 7 31 19
63 28 70 15 11 15 14 2 22 -13 9 -12 13 8 28 13 10 20 21 16 25 -10 10 -17 9
-42 -9z"/>
<path d="M4057 1253 c-17 -59 -38 -175 -33 -180 16 -16 34 12 44 71 7 36 15
79 18 96 5 23 3 30 -9 30 -9 0 -18 -8 -20 -17z"/>
<path d="M4405 1258 c-2 -7 -5 -20 -8 -28 -2 -10 -14 -14 -40 -12 -53 5 -87
-31 -87 -93 0 -38 4 -47 24 -56 16 -8 29 -8 43 -1 11 6 29 9 39 6 18 -5 22 5
40 95 18 83 19 101 7 101 -7 0 -15 -6 -18 -12z m-25 -96 c0 -64 -71 -101 -78
-40 -5 42 14 68 48 68 26 0 30 -4 30 -28z"/>
<path d="M4470 1254 c0 -9 7 -14 17 -12 25 5 28 28 4 28 -12 0 -21 -6 -21 -16z"/>
<path d="M3723 1211 c-51 -32 -58 -117 -11 -142 30 -16 84 -2 108 28 23 30 27
95 7 112 -27 22 -71 23 -104 2z m85 -49 c4 -45 -22 -74 -62 -70 -26 2 -32 8
-34 31 -5 45 23 79 61 75 28 -3 32 -7 35 -36z"/>
<path d="M4108 1143 c-14 -69 -14 -73 3 -73 13 0 19 11 24 43 10 60 22 77 52
77 25 0 25 -2 20 -43 -3 -24 -9 -51 -13 -60 -4 -12 -1 -17 13 -17 16 0 22 11
31 62 14 78 7 88 -62 86 l-53 -1 -15 -74z"/>
<path d="M4449 1145 c-14 -69 -14 -75 2 -75 12 0 20 18 31 75 14 69 14 75 -1
75 -13 0 -20 -18 -32 -75z"/>
<path d="M4538 1198 c-27 -27 -6 -39 22 -13 20 19 54 13 48 -7 -3 -7 -20 -16
-39 -21 -41 -11 -69 -34 -69 -58 0 -25 33 -41 62 -30 13 5 37 7 53 4 24 -5 27
-3 22 11 -4 9 -2 38 3 63 8 33 7 49 -1 59 -18 22 -76 17 -101 -8z m62 -79
c-13 -24 -34 -33 -55 -25 -32 12 0 42 48 45 15 1 16 -2 7 -20z"/>
</g>
</svg>
