<?xml version="1.0" standalone="no"?>
<!DOCTYPE svg PUBLIC "-//W3C//DTD SVG 20010904//EN"
 "http://www.w3.org/TR/2001/REC-SVG-20010904/DTD/svg10.dtd">
<svg version="1.0" xmlns="http://www.w3.org/2000/svg"
 width="500.000000pt" height="300.000000pt" viewBox="0 0 500.000000 300.000000"
 preserveAspectRatio="xMidYMid meet">

<g transform="translate(0.000000,300.000000) scale(0.100000,-0.100000)"
fill="#000000" stroke="none">
<path d="M332 1549 l3 -431 361 -123 362 -123 323 109 c178 60 343 116 367
125 l42 16 0 429 0 429 -730 0 -730 0 2 -431z m1241 191 c76 -29 127 -89 127
-151 0 -18 -8 -19 -101 -19 -100 0 -101 0 -130 31 -24 26 -34 30 -71 27 -38
-3 -43 -6 -46 -29 -4 -32 -1 -33 136 -65 117 -26 175 -55 202 -99 61 -99 16
-225 -100 -278 -63 -28 -234 -36 -311 -13 -101 29 -178 108 -179 184 0 22 2
22 115 22 96 0 115 -3 115 -15 0 -29 38 -55 81 -55 50 0 79 15 79 40 0 27 -24
37 -135 60 -170 34 -240 92 -239 196 2 93 62 153 184 181 73 17 205 8 273 -17z
m-913 -169 c0 -174 7 -227 33 -243 25 -16 84 -8 103 13 17 19 19 41 22 215 l3
194 120 0 119 0 -2 -302 -3 -303 -110 0 -110 0 -3 33 -3 33 -35 -30 c-44 -39
-103 -54 -182 -48 -77 6 -132 39 -164 100 -22 40 -23 55 -26 280 l-4 237 121
0 121 0 0 -179z"/>
<path d="M1870 1560 l0 -410 110 0 110 0 0 25 c0 31 5 31 41 0 83 -69 215 -58
300 25 66 64 92 138 92 255 0 146 -44 234 -137 280 -48 24 -65 27 -126 23 -58
-3 -76 -9 -115 -36 l-45 -32 0 140 0 140 -115 0 -115 0 0 -410z m357 30 c55
-20 83 -106 63 -195 -15 -68 -42 -95 -96 -95 -35 0 -47 5 -68 30 -58 70 -41
226 29 256 37 16 36 16 72 4z"/>
<path d="M3970 1560 l0 -410 115 0 115 0 0 88 c0 75 3 92 19 106 23 21 15 30
89 -104 l48 -85 137 -3 c75 -1 137 0 137 2 0 3 -54 87 -120 187 l-120 183 62
66 c35 36 83 86 108 113 l44 47 -130 0 -130 0 -70 -85 -69 -84 -3 194 -2 195
-115 0 -115 0 0 -410z"/>
<path d="M2712 1742 c-79 -29 -132 -87 -132 -147 l0 -25 105 0 c85 0 105 3
105 14 0 23 41 46 80 46 45 0 80 -24 80 -55 0 -36 -32 -51 -145 -69 -187 -29
-255 -79 -255 -191 0 -85 39 -142 119 -170 81 -28 198 -13 258 35 l28 22 3
-26 3 -26 116 0 c106 0 115 1 107 18 -4 9 -10 121 -13 249 -7 263 -8 265 -92
313 -40 22 -57 25 -179 27 -112 3 -144 0 -188 -15z m238 -367 c0 -67 -35 -105
-98 -105 -64 0 -96 64 -48 95 22 15 102 41 134 44 7 1 12 -12 12 -34z"/>
<path d="M3570 1744 c-19 -8 -47 -27 -62 -41 l-28 -27 0 37 0 37 -110 0 -110
0 0 -300 0 -300 113 0 112 0 0 173 c0 120 4 181 13 203 22 53 95 71 132 34 19
-19 20 -33 20 -215 l0 -195 115 0 115 0 0 235 c0 212 -2 240 -19 273 -23 46
-46 67 -94 87 -46 19 -151 19 -197 -1z"/>
</g>
</svg>
